<?xml version="1.0" encoding="UTF-8"?>
<svg id="Layer_1" data-name="Layer 1" xmlns="http://www.w3.org/2000/svg" viewBox="0 0 427 426.49">
  <defs>
    <style>
      .cls-1 {
        fill: #9acbed;
        stroke: #231f20;
        stroke-miterlimit: 10;
        stroke-width: 2px;
      }
    </style>
  </defs>
  <rect class="cls-1" x="86" y="85.83" width="85" height="85"/>
  <rect class="cls-1" x="171" y="85.83" width="85" height="85"/>
  <rect class="cls-1" x="256" y="85.83" width="85" height="85"/>
  <rect class="cls-1" x="86" y="170.66" width="85" height="85"/>
  <rect class="cls-1" x="171" y="170.66" width="85" height="85"/>
  <rect class="cls-1" x="256" y="170.66" width="85" height="85"/>
  <rect class="cls-1" x="86" y="255.49" width="85" height="85"/>
  <rect class="cls-1" x="171" y="255.49" width="85" height="85"/>
  <rect class="cls-1" x="256" y="255.49" width="85" height="85"/>
  <rect class="cls-1" x="86" y="340.32" width="85" height="85"/>
  <rect class="cls-1" x="171" y="340.32" width="85" height="85"/>
  <rect class="cls-1" x="256" y="340.32" width="85" height="85"/>
  <rect class="cls-1" x="86" y="1" width="85" height="85"/>
  <rect class="cls-1" x="171" y="1" width="85" height="85"/>
  <rect class="cls-1" x="256" y="1" width="85" height="85"/>
  <rect class="cls-1" x="1" y="86" width="85" height="85"/>
  <rect class="cls-1" x="1" y="170.83" width="85" height="85"/>
  <rect class="cls-1" x="1" y="255.66" width="85" height="85"/>
  <rect class="cls-1" x="1" y="340.49" width="85" height="85"/>
  <rect class="cls-1" x="1" y="1.17" width="85" height="85"/>
  <rect class="cls-1" x="341" y="85.83" width="85" height="85"/>
  <rect class="cls-1" x="341" y="170.66" width="85" height="85"/>
  <rect class="cls-1" x="341" y="255.49" width="85" height="85"/>
  <rect class="cls-1" x="341" y="340.32" width="85" height="85"/>
  <rect class="cls-1" x="341" y="1" width="85" height="85"/>
</svg>